<?xml version="1.0" encoding="utf-8"?>
<!-- Generator: Adobe Illustrator 15.1.0, SVG Export Plug-In  -->
<!DOCTYPE svg PUBLIC "-//W3C//DTD SVG 1.1//EN" "http://www.w3.org/Graphics/SVG/1.1/DTD/svg11.dtd" [
	<!ENTITY ns_flows "http://ns.adobe.com/Flows/1.0/">
]>
<svg version="1.1"
	 xmlns="http://www.w3.org/2000/svg" xmlns:xlink="http://www.w3.org/1999/xlink" xmlns:a="http://ns.adobe.com/AdobeSVGViewerExtensions/3.0/"
	 x="0px" y="0px" width="111px" height="32px" viewBox="-0.281 -0.09 111 32"
	 overflow="visible" enable-background="new -0.281 -0.09 111 32" xml:space="preserve">
<defs>
</defs>
<g>
	<path fill="#F4F4F4" d="M38.616,6.289V3.62h1.451v2.669H38.616z M38.616,24.795V9.711h1.451v15.083H38.616z"/>
	<path fill="#F4F4F4" d="M45.982,21.546v9.428h-1.451V9.711h1.306v3.017c1.247-1.915,3.452-3.278,5.743-3.278
		c4.177,0,7.194,3.858,7.194,7.832c0,4.206-2.785,7.803-6.904,7.803C49.289,25.085,47.201,23.519,45.982,21.546z M57.295,17.282
		c0-3.452-2.64-6.527-6.004-6.527c-2.118,0-5.076,1.915-5.308,4.061v4.96c0.957,2.233,3.162,4.003,5.569,4.003
		C55.032,23.78,57.295,20.531,57.295,17.282z"/>
	<path fill="#F4F4F4" d="M61.003,20.415c0-2.611,2.61-4.467,6.294-4.467c1.625,0,3.394,0.319,4.699,0.812v-1.479
		c0-2.843-1.77-4.67-4.525-4.67c-1.508,0-3.19,0.638-4.844,1.799l-0.581-0.986c1.944-1.306,3.771-1.973,5.512-1.973
		c3.625,0,5.888,2.263,5.888,5.946v7.368c0,0.493,0.203,0.725,0.609,0.725v1.305c-0.203,0.029-0.377,0.029-0.522,0.029
		c-0.696,0-1.392-0.522-1.392-1.305v-1.247c-1.393,1.798-3.655,2.813-6.149,2.813C63.179,25.085,61.003,23.055,61.003,20.415z
		 M71.504,21.604c0.319-0.377,0.493-0.812,0.493-1.16v-2.668c-1.421-0.522-2.959-0.812-4.525-0.812
		c-3.017,0-5.047,1.363-5.047,3.365c0,2.031,1.682,3.597,3.858,3.597C68.516,23.925,70.576,23.025,71.504,21.604z"/>
	<path fill="#F4F4F4" d="M85.017,11.017c-2.727,0.087-4.874,1.711-5.686,4.351v9.427h-1.45V9.711h1.363v3.713
		c1.044-2.118,2.9-3.539,4.844-3.742c0.377,0,0.696-0.029,0.929-0.029V11.017z"/>
	<path fill="#F4F4F4" d="M87.857,3.62h1.479v18.188c0,1.131,0.696,1.828,1.799,1.828c0.435,0,1.102-0.116,1.595-0.29l0.29,1.16
		c-0.667,0.261-1.769,0.464-2.465,0.464c-1.625,0-2.698-1.073-2.698-2.727V3.62z"/>
	<path fill="#F4F4F4" d="M93.947,17.282c0-4.235,3.22-7.832,7.367-7.832c4.177,0,7.396,3.597,7.396,7.832
		c0,4.206-3.19,7.803-7.396,7.803C97.079,25.085,93.947,21.488,93.947,17.282z M101.314,23.78c3.22,0,5.918-2.93,5.918-6.527
		c0-3.539-2.698-6.498-5.918-6.498c-3.19,0-5.889,2.988-5.889,6.585C95.425,20.908,98.065,23.78,101.314,23.78z"/>
</g>
<path fill="none" stroke="#F4F4F4" d="M30.094,13.546c0-3.46-2.805-6.265-6.264-6.265c-0.706,0-1.382,0.122-2.015,0.337
	c0.02-0.201,0.031-0.404,0.031-0.61c0-3.46-2.805-6.264-6.265-6.264c-3.458,0-6.264,2.804-6.264,6.264
	c0,0.29,0.026,0.573,0.065,0.852C8.584,7.492,7.7,7.281,6.763,7.281c-3.458,0-6.263,2.805-6.263,6.265
	c0,2.774,1.806,5.124,4.305,5.947c-0.907,1.087-1.454,2.484-1.454,4.01c0,3.46,2.805,6.265,6.264,6.265
	c2.521,0,4.689-1.493,5.682-3.64c0.993,2.147,3.161,3.64,5.682,3.64c3.46,0,6.264-2.804,6.264-6.265c0-1.526-0.547-2.923-1.454-4.01
	C28.288,18.669,30.094,16.32,30.094,13.546z"/>
<path fill="#F4F4F4" d="M9.955,22.045c0.017,0.014,0.035,0.027,0.053,0.039c0.323,0.242,0.708,0.426,1.114,0.538
	c0.309,0.081,0.597,0.121,0.887,0.122c1.213,0.016,3.654-0.451,6.312-3.75l0.001-0.001c2.659-3.3,2.598-5.783,2.325-6.97
	c-0.066-0.287-0.169-0.567-0.307-0.834c-0.197-0.377-0.46-0.713-0.764-0.979c-0.016-0.014-0.033-0.029-0.05-0.043l-0.665-0.539
	c-0.626-0.504-1.536-0.418-2.028,0.192l-1.57,1.948c-0.491,0.61-0.383,1.517,0.242,2.021l0.997,0.804
	c-0.24,0.562-0.555,1.24-1.163,1.994c-0.608,0.756-1.204,1.208-1.703,1.562l-0.997-0.805c-0.625-0.502-1.534-0.416-2.026,0.195
	l-1.569,1.946c-0.492,0.611-0.384,1.518,0.241,2.022L9.955,22.045z M15.886,12.27l1.568-1.948c0.217-0.268,0.622-0.301,0.905-0.073
	l0.334,0.27l-2.354,2.92l-0.333-0.271C15.724,12.941,15.669,12.539,15.886,12.27z M15.961,17.09c0.912-1.13,1.233-2.123,1.514-2.738
	l-0.824-0.664l2.352-2.918l0.021,0.017l-0.001,0.002c0.218,0.183,0.436,0.438,0.607,0.766c0.098,0.193,0.183,0.407,0.238,0.646
	c0.355,1.543-0.14,3.773-2.167,6.29l-0.001,0.001c0,0,0,0-0.001,0.001c-2.028,2.516-4.102,3.474-5.686,3.454
	c-0.247-0.002-0.473-0.04-0.683-0.096c-0.356-0.096-0.652-0.254-0.877-0.429l-0.001,0l-0.021-0.017l2.353-2.919l0.823,0.664
	C14.148,18.746,15.05,18.22,15.961,17.09z M9.665,19.987l1.569-1.947c0.217-0.269,0.622-0.301,0.905-0.072l0.334,0.268l-2.353,2.919
	l-0.334-0.269C9.503,20.66,9.449,20.256,9.665,19.987z"/>
</svg>
